<svg width="580" height="400" xmlns="http://www.w3.org/2000/svg">
 <!-- Created with Method Draw - http://github.com/duopixel/Method-Draw/ -->

 <g>
  <title>background</title>
  <rect fill="#fff" id="canvas_background" height="402" width="582" y="-1" x="-1"/>
  <g display="none" overflow="visible" y="0" x="0" height="100%" width="100%" id="canvasGrid">
   <rect fill="url(#gridpattern)" stroke-width="0" y="0" x="0" height="100%" width="100%"/>
  </g>
 </g>
 <g>
  <title>Layer 1</title>
  <!-- Created with Method Draw - http://github.com/duopixel/Method-Draw/ -->
  <g stroke="null" id="svg_12">
   <g stroke="null" transform="matrix(0.7916789042109577,0,0,0.762051492502897,-3776.3421760909696,-2360.4731458025108) " id="svg_10">
    <title stroke="null" transform="translate(45.47298049926758,-31.493934631347656) translate(-88.3668212890625,-29.46094512939453) translate(-313.3310546875,-364.8833923339844) translate(5197.52490234375,0) translate(0,3584.5) ">background</title>
    <rect stroke="null" x="4840.300007" y="3157.661728" width="582" height="402" id="svg_8" fill="#fff"/>
   </g>
   <g stroke="null" transform="matrix(0.7916789042109577,0,0,0.762051492502897,-3776.3421760909696,-2360.4731458025108) " id="svg_11">
    <title stroke="null" transform="translate(45.47298049926758,-31.493934631347656) translate(-88.3668212890625,-29.46094512939453) translate(-313.3310546875,-364.8833923339844) translate(5197.52490234375,0) translate(0,3584.5) ">Layer 1</title>
    <g stroke="null" id="svg_6">
     <path stroke="null" fill="#63d1bb" d="m5131.300007,3596.956968c112.78456,0 204.25672,-91.47215 204.25672,-204.25672c-112.79734,0 -204.25672,91.45938 -204.25672,204.25672zm-145.13649,-266.66068c0,31.31698 25.4139,56.74365 56.73088,56.74365c11.90837,0 23.03733,-3.7565 32.10916,-9.99179l-0.45998,4.30593c0,31.31698 25.42668,56.74365 56.74366,56.74365s56.73088,-25.42667 56.73088,-56.74365l-0.45998,-4.30593c9.18682,6.35028 20.21356,9.99179 32.12194,9.99179c31.31698,0 56.73088,-25.42667 56.73088,-56.74365c0,-22.59013 -13.26276,-41.98596 -32.45415,-51.07057c19.06361,-9.07183 32.45415,-28.48043 32.45415,-51.07056c0,-31.31698 -25.4139,-56.73088 -56.73088,-56.73088c-11.90837,0 -23.03734,3.74372 -32.12194,9.97901l0.47275,-4.30593c0,-31.31697 -25.4139,-56.73087 -56.73088,-56.73087s-56.74365,25.42667 -56.74365,56.73087l0.45998,4.30593c-9.18683,-6.35028 -20.20079,-9.97901 -32.10917,-9.97901c-31.31697,0 -56.73087,25.42667 -56.73087,56.73088c0,22.59013 13.27553,41.98596 32.45415,51.07056c-19.1914,9.08461 -32.46693,28.48044 -32.46693,51.07057zm145.13649,-107.80145c31.31698,0 56.73088,25.4139 56.73088,56.73088c0,31.31698 -25.4139,56.73088 -56.73088,56.73088s-56.74365,-25.42668 -56.74365,-56.73088c0,-31.31698 25.42667,-56.73088 56.74365,-56.73088zm-204.25671,170.20541c0,112.78457 91.45937,204.25672 204.25671,204.25672c0,-112.79734 -91.45937,-204.25672 -204.25671,-204.25672z" id="svg_7"/>
    </g>
   </g>
  </g>
 </g>
</svg>