<svg xmlns="http://www.w3.org/2000/svg" xmlns:xlink="http://www.w3.org/1999/xlink"><symbol id="icon-flag" viewBox="-11.3 -28.3 46.7 81.7"><path fill="#63d1bb" d="M-3.6-24.5v39L35.4-5l-39-19.5zm-7.7 77.8v-81.6h3.8v81.6h-3.8z"/><path fill="#231F20" d="M-11.3-28.3h3.8v81.7h-3.8z"/></symbol><symbol id="icon-interior" viewBox="-259.4 -19.7 40.2 62.4"><path d="M-244.2 18.3a8 8 0 0 0 0 3.6c.5 2.7 1.7 6 2.4 9.7h5c.7-3.6 2-7 2.5-9.7.3-1.4.3-2.7 0-3.6-.2-1-.9-1.6-2-2.3h-6c-1 .7-1.7 1.4-2 2.3zm11.8 20h-13.8c-1.3 0-2.3 1-2.3 2.2v2.2h18.5v-2.2c0-1.2-1-2.2-2.3-2.2zm7.1-55.7H-237c0-1.3-1-2.3-2.3-2.3-1.3 0-2.3 1-2.3 2.3h-11.7L-259.4 8c.8-.5 1.6-1 2.6-1 1.4 0 2.3.8 3 1.4.6.5 1.1.8 1.4.8.3 0 .8-.3 1.5-.8.6-.6 1.5-1.4 2.9-1.4 1.3 0 2.2.8 2.9 1.4.7.5 1.1.8 1.4.8.2 0 .4 0 .6-.2l.9-.6c.5-.4 1.1-1 2-1.3h1c1.3 0 2.1.7 2.8 1.3.7.5 1.2.8 1.5.8.3 0 .7-.3 1.4-.8.7-.6 1.6-1.4 3-1.4 1.3 0 2.2.8 2.9 1.4l.8.6.6.2c.3 0 .8-.3 1.5-.9.6-.5 1.5-1.3 2.9-1.3 1 0 1.8.5 2.6 1l-6-25.5zm-10.6 51.2h-6.8c-.7 0-1.2.5-1.2 1.1 0 .7.5 1.1 1.2 1.1h6.9c.6 0 1.1-.4 1.1-1 0-.7-.5-1.2-1.1-1.2zm-3.4-24.5l-.6.2-.5.5v3.7h2.3V10c-.6-.4-1-.7-1.2-.7z"/></symbol><symbol id="icon-left-arrow"><path d="M50 11H7.7l8.1-8.2L13 0 0 13l13 13 2.8-2.8L7.7 15H50z"/></symbol><symbol id="icon-mail"><path fill="#333" d="M28 5H4a4 4 0 0 0-4 4v13a4 4 0 0 0 4 4h24a4 4 0 0 0 4-4V9a4 4 0 0 0-4-4zM2 10.3l7 5.2-7 5.3V10.2zM30 22a2 2 0 0 1-2 2H4a2 2 0 0 1-2-2l7.8-5.9 4.4 3.3a3 3 0 0 0 3.6 0l4.4-3.3L30 22zm0-1.3l-7-5.2 7-5.3v10.6zm-12.8-2.1a2 2 0 0 1-2.4 0l-4.1-3.1-.9-.6L2 9c0-1.1.9-2 2-2h24a2 2 0 0 1 2 2l-12.8 9.6z"/></symbol><symbol id="icon-map-pin"><path fill="#FFF" d="M56.3 9.2a34.1 34.1 0 0 0-46.6 0 30.5 30.5 0 0 0 0 44.6S33 75.6 33 100.8c0-25.2 23.3-47 23.3-47a30.5 30.5 0 0 0 0-44.6z"/><path fill="#6BC6B3" d="M47 45.5c-.6-3.3.2-7 0-10.3 0-3.7-.6-7.4-.6-11.2 0-3 .5-6.2-.5-9.1l.2-1c.3-1.5-4.6-.7-5.3.7-.5.3-.8.8-.6 1.3l.2.4c-1 4.4-2.2 8.8-3.7 13.1l-1.8 5c-.8-1.6-1.7-3-2.3-4.7-2-4.9-3.7-9.7-6-14.3.3-2.2-4.5-2-5.4 0-1.2 2.4-1 4.8-.6 7.3.4 2.9.4 5.7.5 8.6 0 5.5.5 11 .6 16.6-.5.6-.7 1.3-.2 2l.8.7c1.3 1 5 .2 5-1.7 0-5.8-.5-11.6-.7-17.3v-1.7l.2.6c1 2.2 1.9 4.4 3.1 6.5 1.2 2 1.8 4.3 2.5 6.5-.2.3-.4.7-.3 1 0 .3.1.4.4.5.8.8 2.5.4 3.5 0 .4-.1.8-.3 1.1-.6.5-.3 1.3-1 1-1.6v-.4c.6-1.8 1-3.6 1.3-5.5.4-2 1-3.9 1.8-5.8l.2 2.6c.3 3.6 0 7.1 0 10.7 0 1.2 0 2.3.3 3.4.1.5.5 2.6.4 2.7-.8.8-.6 1.7.6 2 1.2.3 2.9-.1 3.8-1 1.7-1.6 1-4 .5-6z"/></symbol><symbol id="icon-menu-close"><path fill="#231F20" d="M20.513 1.414L19.099 0l-8.843 8.842L1.414 0 0 1.414l8.842 8.842L0 19.098l1.414 1.414 8.842-8.842 8.843 8.842 1.414-1.414-8.842-8.842z"/></symbol><symbol id="icon-menu-open"><path fill="#231F20" d="M0 0h19.958v2H0zm0 6h19.958v2H0zm0 6h19.958v2H0z"/></symbol><symbol id="icon-phone"><path d="M17.3 24.3h-1c-5-.5-8.6-2.8-11.2-5.7C2.5 15.6.4 11.9 0 6.8V5.5c0-1 .5-1.6 1-2.1.7-.7 1.7-1.5 2.6-1.6.6 0 1.8.5 2.2 1 .4.6.6 1.7.8 2.5.2.8.6 2 .5 2.7-.2 1.2-1.8 1.7-2.3 2.6 1.6 3.7 4.1 6.4 7.5 8.3.9-.5 1.6-1.9 2.8-1.9l1.4.3 1.3.5c.7.3 2 .7 2.4 1.2.4.7.7 1.7.6 2.3-.2 1.2-2.3 2.6-3.5 3zM12.5 1.5c6 0 10.8 4.8 10.8 10.8h1.5C24.8 5.5 19.3 0 12.5 0v1.5z"/><path d="M12.5 9.3V11c.8 0 1.4.6 1.4 1.4h1.6a3 3 0 0 0-3-3zm0-3.1a6 6 0 0 1 6 6.1h1.7c0-4.2-3.4-7.6-7.7-7.6v1.5z"/></symbol><symbol id="icon-play" viewBox="247.3 382.6 100.7 76.9"><path fill="#63D1BB" d="M344.3 400.7s-1-7-3.8-10c-3.7-4.1-7.7-4.1-9.6-4.4-13.3-1-33.3-1-33.3-1s-20 0-33.3 1c-1.9.3-6 .3-9.6 4.3-2.8 3.1-3.8 10.1-3.8 10.1s-.9 8.2-.9 16.4v7.7c0 8.2 1 16.5 1 16.5s1 7 3.8 10c3.6 4 8.3 4 10.5 4.4 7.6.7 32.3 1 32.3 1s20 0 33.4-1c1.8-.3 5.9-.3 9.5-4.3 2.8-3.1 3.8-10.1 3.8-10.1s1-8.2 1-16.4v-7.7c-.1-8.3-1-16.5-1-16.5z"/><path fill="#FFF" d="M297.6 459.4c-1 0-25-.2-32.6-1h-.3l-1.1-.2c-2.5-.3-7.2-1-10.8-5a24.6 24.6 0 0 1-4.5-11.6c0-.4-1-8.5-1-16.8v-7.7c0-8.2.9-16.3 1-16.7 0-.9 1-8 4.4-11.6 4-4.5 8.5-5 10.7-5.1l.5-.1h.2c13.2-1 33.3-1 33.5-1 .2 0 20.3 0 33.5 1h.7c2.2.3 6.7.7 10.7 5.2a24.6 24.6 0 0 1 4.5 11.5c0 .4 1 8.6 1 16.8v7.8c0 8.2-1 16.3-1 16.7-.1.8-1.2 8-4.5 11.6-4 4.4-8.5 4.9-10.7 5.1h-.6c-13.3 1.1-33.4 1.1-33.6 1.1zm-32-6.4a559 559 0 0 0 65.6-.1 10 10 0 0 0 7.3-3.4c1.8-2 2.8-7 3-8.6.1-.5 1-8.3 1-16v-7.7c0-7.8-1-15.7-1-16.2-.3-2.3-1.4-6.7-3-8.5-2.7-2.9-5.4-3.2-7.3-3.4h-.5c-13.1-1-32.9-1-33-1h-.1a551.4 551.4 0 0 0-33.6 1c-1.9.2-4.6.5-7.2 3.4a20 20 0 0 0-3.1 8.5c0 .6-.9 8.4-.9 16.1v7.7c0 7.8.9 15.6 1 16.1.2 2.4 1.4 6.8 3 8.6 2.4 2.6 5.3 3 7.5 3.3.5 0 1 0 1.4.2z"/><path fill="#FFF" d="M285.7 403.1v35.7l29.8-17.8z"/></symbol><symbol id="icon-right-arrow"><path d="M0 11h42.3l-8.1-8.2L37 0l13 13-13 13-2.8-2.8 8.1-8.2H0z"/></symbol><symbol id="icon-tick"><path d="M32.7 1.4L31.3 0l-20 20-9.9-10L0 11.4l10 10 1.3 1.3 1.5-1.4z"/></symbol><symbol id="icon-toy" viewBox="226 226.2 60 59.6"><path fill="#231F20" d="M226 269.9l27.4 16v-23.4l-27.4-16V270zm51.3-31.3v2.5c0 1.8-3.4 3.3-7.7 3.3-4.2 0-7.7-1.5-7.7-3.3v-4c.3 1.6 3.6 3 7.7 3 4.3 0 7.7-1.5 7.7-3.3 0-1.8-3.4-3.3-7.7-3.3h-1l-5-2.8v3c0 1.9-3.4 3.3-7.7 3.3-2.7 0-5-.5-6.4-1.4a4 4 0 0 0-.7-.6c-.4-.4-.6-.8-.6-1.3v-3l-4.8 2.9h-1c-4.3 0-7.8 1.4-7.8 3.2 0 1.8 3.5 3.3 7.7 3.3 4.1 0 7.5-1.4 7.7-3v4c0 1.8-3.4 3.3-7.7 3.3-4.2 0-7.7-1.5-7.7-3.3v-2.4l-6 3.4 27.6 16 27.3-15.9-6.2-3.6zm-13.6 10.2c0 1.8-3.5 3.3-7.7 3.3-4.3 0-7.8-1.5-7.8-3.3v-4c.3 1.6 3.7 3 7.8 3 4 0 7.4-1.4 7.7-3v4zm-5.1 13.9v23.1l27.4-16v-23l-27.4 15.9zm-2.7-30c4.3 0 7.7-1.4 7.7-3.2 0-1.8-3.4-3.3-7.7-3.3-4.3 0-7.7 1.5-7.7 3.3 0 1.8 3.4 3.3 7.7 3.3"/></symbol><symbol id="icon-video"><path fill="#63d1bb" d="M26 15l6-4v16l-6-4v-8zm-2 0v8a4 4 0 0 1-4 4H4a4 4 0 0 1-4-4v-8a4 4 0 0 1 4-4h10c0-1.1.9-2 2-2V7H5a1 1 0 1 1 0-2h12c.6 0 1 .4 1 1v3a2 2 0 0 1 2 2 4 4 0 0 1 4 4zm-12 0H4v8h8v-8zm8 1c0-.6-.4-1-1-1h-4a1 1 0 1 0 0 2h4c.6 0 1-.4 1-1z"/></symbol></svg>