<svg>
  <!--  Иконка Академии icon-htmlacademy -->
  <symbol id="icon-htmlacademy" xmlns="http://www.w3.org/2000/svg" viewBox="0 0 60 60">
    <path fill="#2E368F" d="M30.2 5h-.2l-19.7 2.1v36.2l19.7 11.7 19.7-11.7v-36.2l-19.5-2.1zm17 36.8l-17.2 10.2-17.2-10.2v-14.8l17.1 10.2v1.8l-11.7-7v1.8l11.8 7.1v1.9l-11.8-7v1.8l11.8 7 11.9-7.1v-7.6l5.3-3.2v15.1zm-.1-17l-4.7 2.8-2.2 1.3-10.3-6.1v1.8l8.8 5.3h-.1l-.2.1-1.3.7-7.3-4.3v1.8l5.8 3.4-1.4.9-4.3-2.6v1.8l2.9 1.7-2.9 1.7-17-10.1 17-10.2 17.2 10zm.1-1.8l-17.3-10.2-17.1 10.2v-13.6l17.2-1.8 17.2 1.8v13.6z"/>
  </symbol>
  <!-- Иконка цветок icon-flower -->
  <symbol id="icon-flower" version="1.1" xmlns="http://www.w3.org/2000/svg" xmlns:xlink="http://www.w3.org/1999/xlink" x="0px" y="0px" width="31.972px" height="37.301px" viewBox="8.014 4.35 31.972 37.301" enable-background="new 8.014 4.35 31.972 37.301" xml:space="preserve">
    <path d="M24,41.65c8.827,0,15.986-7.159,15.986-15.986C31.158,25.664,24,32.822,24,41.65z M12.641,20.78 c0,2.451,1.989,4.441,4.44,4.441c0.932,0,1.803-0.294,2.513-0.782l-0.036,0.337c0,2.451,1.99,4.441,4.441,4.441 s4.44-1.99,4.44-4.441l-0.036-0.337c0.719,0.497,1.582,0.782,2.514,0.782c2.451,0,4.44-1.99,4.44-4.441 c0-1.768-1.038-3.286-2.54-3.997c1.492-0.71,2.54-2.229,2.54-3.997c0-2.451-1.989-4.44-4.44-4.44c-0.932,0-1.803,0.293-2.514,0.781 L28.44,8.79c0-2.451-1.989-4.44-4.44-4.44s-4.441,1.99-4.441,4.44l0.036,0.337c-0.719-0.497-1.581-0.781-2.513-0.781 c-2.451,0-4.44,1.99-4.44,4.44c0,1.768,1.039,3.286,2.54,3.997C13.68,17.494,12.641,19.012,12.641,20.78z M24,12.343 c2.451,0,4.44,1.989,4.44,4.44c0,2.451-1.989,4.44-4.44,4.44s-4.441-1.99-4.441-4.44C19.559,14.332,21.549,12.343,24,12.343z  M8.014,25.664c0,8.827,7.158,15.986,15.986,15.986C24,32.822,16.842,25.664,8.014,25.664z"/>
  </symbol>
  <!-- Иконка правой стрелки icon-right-arrow -->
  <symbol version="1.1" id="icon-right-arrow" xmlns="http://www.w3.org/2000/svg" xmlns:xlink="http://www.w3.org/1999/xlink" x="0px" y="0px" width="50px" height="26.003px" viewBox="0 0 50 26.003" enable-background="new 0 0 50 26.003" xml:space="preserve">
    <polygon points="0,11.002 42.341,11.002 34.166,2.828 36.995,0 50,12.998 49.996,13.001 50,13.005 36.995,26.003 34.166,23.175 42.339,15.002 0,15.002 "/>
  </symbol>
  <!-- Иконка корзины icon-cart-->
  <symbol version="1.1" id="icon-cart" xmlns="http://www.w3.org/2000/svg" xmlns:xlink="http://www.w3.org/1999/xlink" x="0px" y="0px" width="20.294px" height="18.849px" viewBox="264.205 370.961 20.294 18.849" enable-background="new 264.205 370.961 20.294 18.849" xml:space="preserve">
    <path fill="#231F20" d="M283.75,378.19h-3.151l-3.407-6.814c-0.185-0.37-0.634-0.52-1.006-0.335 c-0.371,0.186-0.521,0.636-0.335,1.006l3.071,6.143h-9.138l3.072-6.143c0.185-0.371,0.035-0.821-0.335-1.006 c-0.37-0.185-0.821-0.035-1.006,0.335l-3.407,6.814h-3.151c-0.414,0-0.75,0.336-0.75,0.75s0.336,0.75,0.75,0.75h0.157l0.855,2.991 c-0.187,0.137-0.316,0.347-0.316,0.595c0,0.396,0.309,0.71,0.697,0.739l1.656,5.795h12.697l1.656-5.795 c0.388-0.028,0.698-0.344,0.698-0.739c0-0.249-0.129-0.459-0.316-0.596l0.854-2.991h0.157c0.414,0,0.75-0.336,0.75-0.75 S284.164,378.19,283.75,378.19z M279.569,388.311h-10.433l-1.224-4.284h12.881L279.569,388.311z M281.222,382.526h-13.739 l-0.81-2.836h15.359L281.222,382.526z"/>
  </symbol>
  <!--Иконка фескука icon-facebook-->
  <symbol version="1.1" id="icon-facebook" xmlns="http://www.w3.org/2000/svg" xmlns:xlink="http://www.w3.org/1999/xlink" x="0px" y="0px" width="14.962px" height="27.718px" viewBox="56.519 49.996 14.962 27.718" enable-background="new 56.519 49.996 14.962 27.718" xml:space="preserve">
    <g id="facebook">
      <g>
        <path fill="#231F20" d="M68.181,55.188c1.026,0.029,1.993,0,2.681-0.3c0.391-0.818,0.556-1.854,0.619-2.989 c-0.19-0.015-0.062-0.337-0.207-0.399c-0.029-0.202-0.278-0.195-0.309-0.398c-0.277-0.165-0.457-0.422-0.723-0.598 c-0.727-0.162-1.44-0.335-2.164-0.499c-0.849,0.044-1.895-0.103-2.58,0.1c-2.619-0.04-3.997,1.12-5.259,2.392 c-0.023,0.078-0.003,0.197-0.105,0.199c-0.574,1.587-0.125,3.621-0.204,5.581c0.099,0.436,0.107,0.958,0.204,1.395 c-0.998,0.296-2.212,0.387-3.402,0.499c-0.317,0.324-0.178,1.089-0.206,1.693c0.085,0.583,0.278,1.06,0.413,1.595 c0.211,0.193,0.596,0.396,0.825,0.498c0.065,0.029,0.071,0.082,0.103,0.1c0.506,0.268,1.451,0.008,2.268,0.1 c-0.136,1.978,0.256,3.915,0,5.68c0.007,0.327,0.295,0.382,0.208,0.798c-0.001,0.963-0.067,1.99,0.208,2.69 c-0.287,0.455-0.497,0.982-0.415,1.794c0.122,0.016,0.114,0.157,0.105,0.299c-0.075,0.47,0.643,0.175,0.515,0.698 c0.162,0.456-0.428,0.184-0.413,0.498v0.896c0.53,0.285,1.462,0.182,2.268,0.199c0.908-0.419,2.188-0.479,2.785-1.196 c0.459,0.235,0.916-0.014,1.238-0.199c-0.018-0.315,0.273-0.333,0.205-0.698c-0.004-0.328-0.173-0.496-0.103-0.896V71.83 c-0.206-2.293-0.048-4.938-0.309-7.176c0.888-0.105,1.917-0.075,2.578-0.398c0.357-0.451,0.377-1.23,0.516-1.895 c0.177-0.226,0.221-0.583,0.206-0.996c0.19-0.213,0.068-0.729,0.104-1.096c-0.141-0.595-0.168-1.3-0.825-1.39 c-0.884-0.235-2.043,0.595-2.991,0.299c0.049-1.134-0.293-2.342,0-3.388C66.761,55.609,67.461,55.39,68.181,55.188z M64.363,59.971c0.117,0.254,0.254,0.486,0.414,0.698c0.079,0.022,0.203,0.003,0.205,0.101c1.192,0.056,2.199-0.069,3.096-0.299 c0,0.998-0.271,1.733-0.518,2.492c-0.662,0.045-1.467,0.3-1.958,0.198c-0.276,0.165-0.372,0.506-0.62,0.698 c-0.049,0.441,0.142,0.495,0,0.797c-0.201,0.137-0.055,0.611-0.205,0.796v1.496c0.085,0.281-0.146,0.258-0.104,0.497v3.488 c-0.085,0.281,0.146,0.258,0.104,0.498v2.989c0.063,0.271-0.132,0.791,0.103,0.896c-0.07,0.364-0.412-0.021-0.824,0.1 c-0.528,0.122-0.926,0.369-1.548,0.4c0.117-0.353,0.32-0.622,0.311-1.097c0.049-0.381-0.365-0.312-0.516-0.49 c0.193-0.644,0.562-1.117,0.722-1.793c0.197-0.515,0.714-1.298,0.31-1.794c-0.522-0.105-0.521,0.293-0.826,0.398 c-0.022,0.077-0.002,0.196-0.103,0.199c-0.023,0.077-0.003,0.196-0.103,0.199c0.01,0.12-0.151,0.062,0,0 c0.022-0.078,0.002-0.197,0.103-0.199c0.023-0.077,0.002-0.197,0.103-0.199v-0.299c0.368-0.575,0.67-1.214,0.826-1.993 c0.191-0.28,0.283-0.656,0.412-0.997c0.156-0.262,0.34-0.869,0.104-1.195c-0.517,0.033-0.796,0.295-0.93,0.697 c-0.32-0.189,0.161-0.434,0.104-0.697c0.138-0.231,0.169-0.566,0.309-0.797c0.202-0.413,0.564-1.304,0-1.596 c-0.438-0.023-0.612,0.207-0.723,0.498c-0.214,0.191-0.43,0.383-0.516,0.698c-0.373-0.07-0.143-0.727-0.206-1.097 c-0.067-0.52,0.122-0.899,0-1.195c-0.56-0.799-2.026-0.105-3.197-0.299c-0.108-0.307-0.222-0.984-0.104-1.195 c1.045-0.088,2.479,0.201,3.197-0.199c0.024-0.078,0.003-0.197,0.104-0.199c0.094-0.723-0.271-1-0.515-1.396 c0.232-0.806,0.04-2.02,0.104-2.989c0.233-0.141,0.328-0.414,0.515-0.598c0.112-0.955,0.673-1.476,0.722-2.49 c-0.273,0.001-0.607-0.055-0.619,0.199c-0.302-0.114-0.382,0.479-0.515,0.199c-0.112-0.541,0.246-0.626,0.309-0.997 c0.599-0.418,1.212-0.82,1.856-1.195c1.741-0.244,4.648-0.449,6.086,0.198c0.051,0.616-0.287,0.854-0.207,1.496h-1.546 c-1.092,0.24-1.987,0.672-2.991,0.997c-0.24,0.066-0.276,0.331-0.516,0.398c-0.036,0.396-0.225,0.646-0.311,0.996 C64.182,57.424,64.394,58.582,64.363,59.971z"/>
      </g>
    </g>
  </symbol>
  <!-- Иконка мяч icon-ball -->
  <symbol version="1.1" id="icon-ball" xmlns="http://www.w3.org/2000/svg" xmlns:xlink="http://www.w3.org/1999/xlink" x="0px" y="0px" width="34.373px" height="34.373px" viewBox="0 0 34.373 34.373" enable-background="new 0 0 34.373 34.373" xml:space="preserve">
    <g>
      <path fill="#63d1bb" d="M0.286,14.069c-0.382,2.073-0.384,4.211,0.008,6.301l4.121-3.21L0.286,14.069z"/>
      <path fill="#63d1bb" d="M24.403,1.585C19.62-0.623,13.959-0.559,9.149,1.992l7.513,5.625L24.403,1.585z"/>
      <path fill="#63d1bb" d="M33.901,13.175l-4.811,3.748l4.936,3.695C34.522,18.173,34.489,15.63,33.901,13.175z"/>
      <path fill="#63d1bb" d="M9.209,32.414c4.844,2.534,10.724,2.65,15.73,0.113l-8.096-6.062L9.209,32.414z"/>
      <path fill="#63d1bb" d="M7.914,14.433L1.681,9.767c-0.32,0.669-0.595,1.356-0.825,2.056l5.308,3.974L7.914,14.433z"/>
      <path fill="#63d1bb" d="M18.593,25.102l8.336,6.242c0.277-0.191,0.551-0.391,0.82-0.601c0.318-0.248,0.625-0.505,0.92-0.771l-8.326-6.234 L18.593,25.102z"/>
      <path fill="#63d1bb" d="M11.413,11.707L4.002,6.158C3.54,6.709,3.117,7.285,2.733,7.881l6.931,5.189L11.413,11.707z"/>
      <path fill="#63d1bb" d="M22.093,22.375l8.092,6.059c0.471-0.544,0.904-1.112,1.297-1.701l-7.639-5.721L22.093,22.375z"/>
      <path fill="#63d1bb" d="M14.913,8.98L7.196,3.203C7.003,3.341,6.812,3.482,6.623,3.629C6.227,3.938,5.849,4.261,5.487,4.597l7.676,5.747 L14.913,8.98z"/>
      <path fill="#63d1bb" d="M25.592,19.649l6.972,5.221c0.33-0.662,0.615-1.341,0.855-2.033l-6.077-4.55L25.592,19.649z"/>
      <path fill="#63d1bb" d="M26.448,2.706L0.88,22.626c0.233,0.698,0.513,1.386,0.839,2.059l26.52-20.663C27.667,3.541,27.068,3.102,26.448,2.706z"/>
      <path fill="#63d1bb" d="M30.743,6.624c-0.301-0.386-0.614-0.754-0.939-1.106L2.786,26.567c0.262,0.402,0.542,0.797,0.843,1.183 c0.142,0.183,0.288,0.359,0.436,0.534L31.155,7.176C31.021,6.99,30.886,6.806,30.743,6.624z"/>
      <path fill="#63d1bb" d="M32.298,8.999L5.552,29.838c0.544,0.501,1.114,0.962,1.708,1.382l25.962-20.228C32.959,10.314,32.651,9.648,32.298,8.999z"/>
    </g>
  </symbol>
  <!-- Иконка подарок icon-gift -->
  <symbol version="1.1" id="icon-gift" xmlns="http://www.w3.org/2000/svg" xmlns:xlink="http://www.w3.org/1999/xlink" x="0px" y="0px" width="32.666px" height="32.486px" viewBox="239.665 239.757 32.666 32.486" enable-background="new 239.665 239.757 32.666 32.486" xml:space="preserve">
    <path fill="#63d1bb" d="M242.56,272.243h12.504v-13.91H242.56V272.243z M270.742,248.623h-7.335 c0.521-0.267,0.984-0.549,1.396-0.845c1.588-1.133,2.424-2.57,2.42-3.999c0.002-1.169-0.556-2.202-1.359-2.901 c-0.805-0.704-1.869-1.119-3.016-1.121c-1.22-0.001-2.352,0.421-3.32,1.069c-1.459,0.979-2.606,2.451-3.424,4.067 c-0.039,0.079-0.078,0.157-0.115,0.236c-0.299-0.623-0.647-1.226-1.041-1.792c-0.691-0.985-1.523-1.86-2.497-2.511 c-0.97-0.646-2.103-1.069-3.322-1.069c-1.213,0.004-2.323,0.514-3.155,1.295c-0.828,0.783-1.41,1.885-1.412,3.135 c-0.002,0.73,0.211,1.494,0.649,2.188c0.552,0.872,1.424,1.628,2.633,2.248h-6.588c-0.878,0-1.591,0.712-1.591,1.59v5.897h15.396 v-7.488h1.873v7.488h15.396v-5.897C272.333,249.334,271.621,248.623,270.742,248.623 M248.38,246.284 c-0.622-0.391-1-0.785-1.22-1.135c-0.22-0.354-0.294-0.662-0.296-0.963c-0.004-0.504,0.248-1.042,0.691-1.461 c0.437-0.415,1.028-0.667,1.562-0.667h0.013c0.685,0,1.366,0.231,2.046,0.683c1.018,0.671,1.975,1.85,2.645,3.187 c0.342,0.676,0.609,1.39,0.789,2.087C251.528,247.694,249.532,247.013,248.38,246.284 M258.917,244.657 c0.557-0.797,1.21-1.466,1.887-1.916c0.68-0.451,1.362-0.683,2.047-0.683h0.006c0.574,0,1.117,0.22,1.494,0.55 c0.377,0.336,0.571,0.739,0.573,1.171c-0.004,0.512-0.272,1.259-1.467,2.132c-1.138,0.825-3.101,1.673-6.127,2.265 C257.62,246.974,258.177,245.704,258.917,244.657 M256.937,272.243h12.506v-13.91h-12.506V272.243z"/>
  </symbol>
  <!-- Иконка сердце icon-heart -->
  <symbol version="1.1" id="icon-heart" xmlns="http://www.w3.org/2000/svg" xmlns:xlink="http://www.w3.org/1999/xlink" x="0px" y="0px" width="33.05px" height="27.857px" viewBox="47.475 50.071 33.05 27.857" enable-background="new 47.475 50.071 33.05 27.857" xml:space="preserve">
    <path fill="#63d1bb" d="M80.525,58.808c0-4.825-3.912-8.736-8.736-8.736c-3.405,0-6.348,1.951-7.789,4.793 c-1.441-2.842-4.384-4.793-7.789-4.793c-4.825,0-8.736,3.911-8.736,8.736c0,9.127,14.657,19.121,16.525,19.121 C65.869,77.929,80.525,67.979,80.525,58.808z"/>
  </symbol>
    <symbol>
  </symbol>
    <symbol>
  </symbol>
    <symbol>
  </symbol>
    <symbol>
  </symbol>
    <symbol>
  </symbol>
    <symbol>
  </symbol>

</svg>
